# xmcd CD database file
#
# Track frame offsets:
#	150
#	63949
#	86253
#	104414
#	130626
#	152578
#	167544
#	189891
#	215125
#
# Disc length: 3122 seconds
#
# Revision: 0
# Processed by: cddbd v1.4PL0 Copyright (c) Steve Scherf et al.
# Submitted via: CDex 1.50Beta7
#
DISCID=6a0c3009
DTITLE=Peggy Lee Band - Sounds From the Big House
DYEAR=2002
DGENRE=Jazz
TTITLE0=Rock Paper Scissors
TTITLE1=Little Reminders
TTITLE2=Night Skate
TTITLE3=Bug Hunt/Target Island
TTITLE4=Spiralling
TTITLE5=Distance
TTITLE6=Sounds From the Big House
TTITLE7=Horse's Dream
TTITLE8=Go Dog Go
EXTD=YEAR: 2002
EXTT0=
EXTT1=
EXTT2=
EXTT3=
EXTT4=
EXTT5=
EXTT6=
EXTT7=
EXTT8=
PLAYORDER=
